<svg preserveAspectRatio="none" width="100%" height="100%" overflow="visible" style="display: block;" viewBox="0 0 56.7993 60" fill="none" xmlns="http://www.w3.org/2000/svg">
<path id="Vector" d="M29.9503 15.6031C25.649 15.6031 22.1483 12.1034 22.1483 7.80207C22.1483 3.50172 25.649 0 29.9503 0C34.2517 0 37.7503 3.49965 37.7503 7.80207C37.7503 12.1034 34.2517 15.6031 29.9503 15.6031ZM13.3417 21.7986C9.41276 21.7986 6.21517 18.6021 6.21517 14.671C6.21517 10.74 9.41276 7.54345 13.3417 7.54345C15.2311 7.54591 17.0424 8.29771 18.3782 9.63392C19.7141 10.9701 20.4653 12.7816 20.4672 14.671C20.4672 18.6 17.2707 21.7986 13.3417 21.7986ZM6.28345 37.921C4.61694 37.9194 3.01921 37.2564 1.8411 36.0777C0.662991 34.8991 0.000821471 33.301 0 31.6345C0.00164324 29.9685 0.664175 28.3712 1.84219 27.1932C3.02021 26.0152 4.61748 25.3527 6.28345 25.351C7.94924 25.353 9.54624 26.0156 10.724 27.1936C11.9018 28.3716 12.5642 29.9687 12.5659 31.6345C12.5648 33.3006 11.9026 34.8983 10.7248 36.0767C9.54691 37.2551 7.9496 37.9181 6.28345 37.92V37.921ZM13.3417 53.8934C11.9288 53.8918 10.5743 53.3297 9.57527 52.3306C8.57629 51.3314 8.01447 49.9767 8.0131 48.5638C8.01502 47.1513 8.5769 45.7972 9.57557 44.7984C10.5742 43.7995 11.9282 43.2374 13.3407 43.2352C14.7533 43.2371 16.1076 43.7991 17.1065 44.798C18.1054 45.7969 18.6674 47.1511 18.6693 48.5638C18.6693 51.5017 16.2797 53.8934 13.3417 53.8934ZM29.9503 60C28.7161 59.9989 27.5326 59.5081 26.6599 58.6353C25.7871 57.7625 25.2963 56.5791 25.2952 55.3448C25.2952 52.7772 27.3838 50.6897 29.9503 50.6897C31.1845 50.691 32.3676 51.182 33.2402 52.0547C34.1127 52.9274 34.6034 54.1107 34.6045 55.3448C34.6045 57.9124 32.5169 60 29.9493 60H29.9503ZM46.8103 52.1317C45.8142 52.1306 44.8592 51.7344 44.1548 51.03C43.4504 50.3257 43.0542 49.3706 43.0531 48.3745C43.0542 47.3783 43.4504 46.4233 44.1548 45.7189C44.8592 45.0145 45.8142 44.6183 46.8103 44.6172C47.8065 44.6183 48.7615 45.0145 49.4659 45.7189C50.1703 46.4233 50.5665 47.3783 50.5676 48.3745C50.5665 49.3706 50.1703 50.3257 49.4659 51.03C48.7615 51.7344 47.8065 52.1306 46.8103 52.1317ZM53.7155 34.7472C52.8983 34.7461 52.1148 34.421 51.5369 33.8431C50.959 33.2652 50.6339 32.4817 50.6328 31.6645C50.6336 30.847 50.9586 30.0633 51.5365 29.4852C52.1144 28.9071 52.8981 28.5818 53.7155 28.5807C54.5329 28.5818 55.3165 28.9069 55.8945 29.4848C56.4726 30.0626 56.7979 30.8461 56.7993 31.6634C56.7979 32.4809 56.4726 33.2645 55.8946 33.8425C55.3165 34.4205 54.533 34.7459 53.7155 34.7472ZM44.4186 14.9017C44.4186 15.2159 44.4804 15.527 44.6005 15.8172C44.7207 16.1075 44.8968 16.3713 45.1189 16.5934C45.341 16.8156 45.6047 16.9919 45.8949 17.1122C46.1851 17.2325 46.4962 17.2944 46.8103 17.2945C47.1245 17.2946 47.4356 17.2327 47.7259 17.1126C48.0161 16.9924 48.2799 16.8163 48.5021 16.5942C48.7243 16.3721 48.9005 16.1084 49.0208 15.8182C49.1411 15.528 49.203 15.2169 49.2031 14.9028C49.2031 14.2683 48.9511 13.6598 48.5024 13.2112C48.0538 12.7626 47.4453 12.5105 46.8109 12.5105C46.1764 12.5105 45.5679 12.7626 45.1193 13.2112C44.6707 13.6598 44.4186 14.2683 44.4186 14.9028V14.9017Z" fill="var(--fill-0, white)"/>
</svg>
