<svg preserveAspectRatio="none" width="100%" height="100%" overflow="visible" style="display: block;" viewBox="0 0 17 18.8884" fill="none" xmlns="http://www.w3.org/2000/svg">
<path id="Vector" d="M2.52966 0H3.74988L4.23755 2.28687C4.36186 2.84999 4.45405 3.32968 4.51355 3.72705H4.5509C4.59234 3.4423 4.68347 2.9656 4.8269 2.29517L5.33325 0H6.55347L5.13818 5.0448V7.46448H3.92627V5.0448L2.52966 0ZM7.96252 1.90503C8.36627 1.90503 8.68833 1.98724 8.93164 2.15405C9.17495 2.3198 9.35234 2.58056 9.46497 2.93225C9.57759 3.285 9.63513 3.75481 9.63513 4.34131V5.13403C9.63513 5.71628 9.57855 6.18204 9.46912 6.53479C9.35968 6.88754 9.18123 7.14729 8.93579 7.31091C8.69035 7.47454 8.3563 7.55371 7.93555 7.55371C7.50311 7.55371 7.16313 7.4715 6.91663 7.30469C6.67013 7.13894 6.49573 6.88126 6.3916 6.53064C6.28748 6.18001 6.23596 5.71522 6.23596 5.13403V4.34131C6.23596 3.75375 6.29442 3.28303 6.41235 2.92603C6.53135 2.57221 6.71877 2.31039 6.97058 2.14783C7.22239 1.9842 7.5524 1.90503 7.96252 1.90503ZM10.2743 2.01086H11.5007V6.01599C11.5007 6.2593 11.5275 6.43274 11.5817 6.53687C11.6359 6.64099 11.724 6.6925 11.8494 6.6925C11.9556 6.6925 12.0577 6.66085 12.1565 6.59497C12.2542 6.53016 12.3276 6.44688 12.3744 6.34595V2.01086H13.6029V7.46655H12.64L12.5342 6.79834H12.5072C12.2469 7.30303 11.8564 7.55579 11.3347 7.55579C10.9735 7.55579 10.7037 7.43579 10.5316 7.19885C10.3595 6.96191 10.2743 6.59124 10.2743 6.08655V2.01086ZM7.93555 2.75171C7.7698 2.75171 7.65284 2.84086 7.58484 3.02148C7.51684 3.20317 7.48315 3.48962 7.48315 3.88062V5.5802C7.48315 5.98395 7.51481 6.27434 7.58069 6.45178C7.64656 6.62922 7.7655 6.71948 7.93762 6.71948C8.10868 6.71842 8.22863 6.63028 8.29663 6.45178C8.36463 6.27434 8.39832 5.98289 8.39832 5.5802V3.88062C8.39832 3.48855 8.36463 3.20211 8.29663 3.02148C8.22863 2.8398 8.10767 2.75171 7.93555 2.75171ZM1.88843 8.5H15.1116C16.1507 8.5 17 9.3493 17 10.3884V17C17 18.0391 16.1507 18.8884 15.1116 18.8884H1.88843C0.849303 18.8884 0 18.0391 0 17V10.3884C0 9.3493 0.849303 8.5 1.88843 8.5ZM8.54773 10.3884V16.9232H9.40271L9.50854 16.4874H9.53137C9.61212 16.6436 9.73096 16.7665 9.89246 16.8568C10.0529 16.9461 10.2303 16.9917 10.4258 16.9917C10.7764 16.9917 11.032 16.8312 11.1978 16.5082C11.3635 16.1852 11.4468 15.6797 11.4468 14.9933V14.2649H11.4447C11.4447 13.7496 11.414 13.3462 11.3513 13.0551C11.2886 12.765 11.1875 12.5549 11.0483 12.4242C10.9092 12.2935 10.7148 12.2291 10.4694 12.2291C10.2781 12.2291 10.1007 12.2837 9.93603 12.391C9.77029 12.4983 9.64244 12.639 9.55212 12.8143H9.5459V10.3884H8.54773ZM2.34912 10.6229V11.4551H3.37842V16.9232H4.39111V11.4551H5.42041V10.6229H2.34912ZM13.3124 12.2312C12.7971 12.2312 12.4333 12.3897 12.2208 12.7085C12.0083 13.0272 11.9012 13.5317 11.9012 14.2234V15.0265C11.9012 15.698 12.0043 16.1946 12.2104 16.5144C12.4166 16.8342 12.7743 16.9958 13.2854 16.9958C13.7115 16.9958 14.0394 16.8908 14.2732 16.6804C14.5069 16.4711 14.6239 16.1519 14.6239 15.7258C14.6239 15.6557 14.6199 15.6002 14.6156 15.5598L13.7212 15.5059C13.7169 15.7864 13.6852 15.9876 13.6278 16.1077C13.5704 16.2277 13.4623 16.2882 13.3082 16.2882C13.1935 16.2882 13.1082 16.2545 13.053 16.1865C12.9977 16.1196 12.9631 16.0105 12.9451 15.8628C12.927 15.7151 12.9181 15.4941 12.9181 15.1987V14.9642H14.6509V14.1777C14.6509 13.6922 14.6122 13.3106 14.5347 13.0343C14.456 12.7591 14.3223 12.558 14.1321 12.4283C13.9408 12.2977 13.6683 12.2312 13.3124 12.2312ZM5.11121 12.3184V15.759C5.11121 16.184 5.18354 16.4983 5.3291 16.6991C5.47466 16.8988 5.69754 17 6.00354 17C6.44448 17 6.77656 16.7859 6.99756 16.3588H7.01831L7.10754 16.9232H7.91895H7.92102V12.3184H6.8855V15.9769C6.84512 16.0619 6.78368 16.1323 6.70081 16.1865C6.61899 16.2418 6.53172 16.2695 6.44141 16.2695C6.33516 16.2695 6.26191 16.227 6.21728 16.1388C6.1716 16.0517 6.1488 15.9039 6.1488 15.6989V12.3184H5.11121ZM13.2916 12.9326C13.4021 12.9326 13.4834 12.9633 13.5365 13.026C13.5896 13.0887 13.6263 13.1947 13.6444 13.3477C13.6646 13.5007 13.6735 13.7267 13.6735 14.0221V14.3521H12.916V14.0221C12.916 13.7214 12.9249 13.4953 12.943 13.3477C12.96 13.2 12.9936 13.095 13.0468 13.0302C13.0999 12.9664 13.1811 12.9326 13.2916 12.9326ZM10.0024 12.9658C10.1087 12.9658 10.1899 13.0064 10.2473 13.0883C10.3036 13.1701 10.3454 13.3099 10.3677 13.5054C10.39 13.7009 10.4009 13.9783 10.4009 14.3396V14.9331C10.4009 15.2689 10.3891 15.5326 10.3614 15.7217C10.3338 15.9129 10.2862 16.0487 10.2203 16.1284C10.1545 16.2081 10.0694 16.2488 9.95886 16.2488C9.8728 16.2488 9.79454 16.2258 9.72229 16.1865C9.65004 16.1461 9.59052 16.0867 9.5459 16.006V13.3933C9.58096 13.269 9.64144 13.1649 9.72644 13.0841C9.81144 13.0034 9.90257 12.9658 10.0024 12.9658Z" fill="var(--fill-0, white)"/>
</svg>
