<svg preserveAspectRatio="none" width="100%" height="100%" overflow="visible" style="display: block;" viewBox="0 0 49.5527 18.002" fill="none" xmlns="http://www.w3.org/2000/svg">
<path id="Union" d="M8.24902 0C10.4809 0 12.2278 0.484964 13.5137 1.47949C14.7509 2.44988 15.5273 3.88157 15.8428 5.82227H12.9805C12.7379 4.70659 12.2038 3.88217 11.4277 3.32422C10.6271 2.7662 9.55915 2.49902 8.24902 2.49902C6.62364 2.49907 5.33775 3.03251 4.3916 4.14844C3.34843 5.31291 2.83894 6.93846 2.83887 9.07324C2.83887 11.1111 3.29984 12.6885 4.22168 13.7803C5.21638 14.9448 6.7692 15.5273 8.87988 15.5273C9.7047 15.5273 10.4812 15.4304 11.209 15.2363C11.8883 15.0422 12.4949 14.7752 13.0771 14.4355V10.8691H8.49219V8.44336H15.916V15.7695C14.9941 16.4974 13.9505 17.0317 12.7617 17.4199C11.5002 17.8081 10.1171 18.002 8.56445 18.002C5.79887 18.0019 3.66417 17.1284 2.13574 15.3818C0.704312 13.7563 0 11.645 0 9.07324C8.57238e-05 6.47747 0.704399 4.34289 2.13574 2.66895C3.63991 0.87367 5.67742 4.702e-05 8.24902 0ZM41.9834 0C44.0213 3.77473e-05 45.7192 0.534094 47.0293 1.60156C48.2909 2.62055 49.0437 4.02759 49.3105 5.77441H46.5439C46.2528 4.6342 45.7195 3.80915 44.9189 3.27539C44.1426 2.74164 43.1476 2.49902 41.9346 2.49902C40.115 2.49904 38.7559 3.10561 37.834 4.36719C36.985 5.48319 36.5732 7.03616 36.5732 9.02539C36.5733 11.0632 36.9858 12.6397 37.8105 13.7314C38.7082 14.896 40.1154 15.5029 42.0078 15.5029C43.2449 15.5029 44.2638 15.1876 45.04 14.6055C45.8649 13.9504 46.4474 12.9556 46.7871 11.6455H49.5527C49.1646 13.6832 48.2671 15.2601 46.8359 16.4004C45.5016 17.4679 43.8994 18.002 42.0312 18.002C39.1445 18.0019 36.9852 17.0802 35.5781 15.2852C34.3408 13.7325 33.7344 11.6455 33.7344 9.02539C33.7344 6.45367 34.3655 4.34247 35.6514 2.74121C37.107 0.897582 39.2178 0 41.9834 0ZM33.3066 17.6621H30.2734L28.6963 13.3193H21.4424L19.8652 17.6621H16.833L23.4561 0.339844H26.6826L33.3066 17.6621ZM22.292 10.9902H27.8477L25.1299 3.39648H25.0332L22.292 10.9902Z" fill="var(--fill-0, black)"/>
</svg>
