<svg preserveAspectRatio="none" width="100%" height="100%" overflow="visible" style="display: block;" viewBox="0 0 20.3608 13.0909" fill="none" xmlns="http://www.w3.org/2000/svg">
<path id="Vector" d="M13.8182 0H17.5369C17.9384 0 18.2642 0.325818 18.2642 0.727273C18.2642 1.12873 17.9384 1.45455 17.5369 1.45455H13.8182C13.4167 1.45455 13.0909 1.12873 13.0909 0.727273C13.0909 0.325818 13.4167 0 13.8182 0ZM1.33807 0.55966H5.3892C7.78048 0.55966 9.20739 1.72952 9.20739 3.63352C9.20739 4.9397 8.24127 6.07941 6.97727 6.26705V6.42045C8.60927 6.53973 9.79545 7.76959 9.79545 9.35796C9.79691 11.518 8.16537 12.8864 5.53409 12.8864H1.33807C0.599159 12.8864 0 12.2872 0 11.5483V1.89773C0 1.15882 0.599159 0.55966 1.33807 0.55966ZM2.57955 2.53125V5.66761H4.51705C5.9105 5.66907 6.67045 5.09566 6.67046 4.10511C6.67046 3.1233 5.9635 2.53125 4.73295 2.53125H2.57955ZM15.946 3.25852C18.7228 3.25852 20.3608 5.02795 20.3608 8.01705V8.77557H13.8977V8.90341C13.9312 10.3041 14.7522 11.1761 16.0511 11.1761C17.033 11.1761 17.7069 10.8271 17.9716 10.2045H20.2869C19.9117 11.982 18.287 13.0909 15.9801 13.0909C13.1103 13.0909 11.4205 11.279 11.4205 8.22159C11.4205 5.15541 13.1446 3.25852 15.946 3.25852ZM15.9574 5.16477C14.8039 5.16477 13.9906 5.96568 13.9062 7.1875H17.9205C17.8681 5.94095 17.1181 5.16477 15.9574 5.16477ZM2.57955 7.41193V10.9148H4.87784C6.36439 10.9148 7.16761 10.2884 7.16761 9.13636C7.16761 8.00764 6.33818 7.41193 4.81818 7.41193H2.57955Z" fill="var(--fill-0, white)"/>
</svg>
