<svg preserveAspectRatio="none" width="100%" height="100%" overflow="visible" style="display: block;" viewBox="0 0 27.5293 10.002" fill="none" xmlns="http://www.w3.org/2000/svg">
<path id="Union" d="M4.58301 0C5.82289 1.46763e-05 6.79348 0.269749 7.50781 0.822266C8.19522 1.36141 8.62654 2.15706 8.80176 3.23535H7.21094C7.07614 2.61537 6.77993 2.15668 6.34863 1.84668C5.90388 1.53676 5.31072 1.38869 4.58301 1.38867C3.67994 1.38867 2.96512 1.68565 2.43945 2.30566C1.86017 2.95253 1.57722 3.85535 1.57715 5.04102C1.57715 6.17322 1.83352 7.04971 2.3457 7.65625C2.89833 8.30318 3.76099 8.62695 4.93359 8.62695C5.39178 8.62693 5.82325 8.57265 6.22754 8.46484C6.60483 8.35702 6.94222 8.20916 7.26562 8.02051V6.03906H4.71777V4.69141H8.8418V8.76172C8.32969 9.16596 7.75016 9.46212 7.08984 9.67773C6.38895 9.89339 5.62044 10.002 4.75781 10.002C3.22145 10.0019 2.03561 9.51623 1.18652 8.5459C0.391284 7.64283 0 6.46975 0 5.04102C8.68911e-05 3.59904 0.391394 2.41332 1.18652 1.4834C2.0222 0.48598 3.15427 0 4.58301 0ZM23.3242 0C24.4563 3.95951e-05 25.4001 0.296629 26.1279 0.889648C26.8287 1.45567 27.2462 2.23774 27.3945 3.20801H25.8584C25.6967 2.57475 25.3997 2.1168 24.9551 1.82031C24.5238 1.52378 23.9708 1.38867 23.2969 1.38867C22.2861 1.38871 21.5317 1.72598 21.0195 2.42676C20.5478 3.04677 20.3184 3.9094 20.3184 5.01465C20.3184 6.14666 20.5477 7.0224 21.0059 7.62891C21.5046 8.27588 22.2866 8.61328 23.3379 8.61328C24.0251 8.61321 24.5912 8.43768 25.0225 8.11426C25.4805 7.75039 25.8045 7.19823 25.9932 6.4707H27.5293C27.3136 7.60269 26.8147 8.47889 26.0195 9.1123C25.2783 9.70524 24.3883 10.002 23.3506 10.002C21.7469 10.0019 20.5473 9.48947 19.7656 8.49219C19.0782 7.62958 18.7412 6.47029 18.7412 5.01465C18.7412 3.58598 19.0914 2.41301 19.8057 1.52344C20.6144 0.499061 21.7877 0 23.3242 0ZM18.5039 9.8125H16.8184L15.9424 7.40039H11.9121L11.0361 9.8125H9.35156L13.0312 0.189453H14.8242L18.5039 9.8125ZM12.3838 6.10645H15.4707L13.9609 1.8877H13.9072L12.3838 6.10645Z" fill="var(--fill-0, black)"/>
</svg>
