<svg preserveAspectRatio="none" width="100%" height="100%" overflow="visible" style="display: block;" viewBox="0 0 18 18" fill="none" xmlns="http://www.w3.org/2000/svg">
<g id="SVG">
<path id="Vector" fill-rule="evenodd" clip-rule="evenodd" d="M14.505 1.572C15.6877 1.2 16.8 2.31225 16.428 3.495L12.6788 15.426C12.2685 16.7325 10.4813 16.887 9.85275 15.669L7.2975 10.7175C7.29444 10.7111 7.28945 10.7059 7.28325 10.7025L2.331 8.148C1.113 7.52025 1.26675 5.733 2.574 5.322L14.505 1.572ZM14.9685 3C14.9685 3 14.9625 3 14.955 3.003L3.024 6.75225C3.01275 6.75525 3.00825 6.759 3.00825 6.759L3.00675 6.7605C3.00273 6.7668 3.00041 6.77404 3 6.7815C2.99899 6.78913 3.00003 6.7969 3.003 6.804L3.0045 6.80475C3.0045 6.80475 3.00825 6.80925 3.018 6.8145L7.70625 9.2325L11.4757 5.463C11.5449 5.39137 11.6277 5.33423 11.7192 5.29492C11.8107 5.25562 11.9091 5.23493 12.0087 5.23406C12.1083 5.2332 12.207 5.25217 12.2992 5.28988C12.3914 5.32759 12.4751 5.38328 12.5455 5.4537C12.616 5.52412 12.6717 5.60786 12.7094 5.70003C12.7471 5.79221 12.7661 5.89097 12.7652 5.99055C12.7643 6.09014 12.7436 6.18855 12.7043 6.28005C12.665 6.37156 12.6079 6.45431 12.5363 6.5235L8.7675 10.293L11.1855 14.982C11.1881 14.9869 11.1914 14.9915 11.1953 14.9955L11.1968 14.997C11.2039 14.9999 11.2116 15.0009 11.2192 15C11.2265 14.9995 11.2334 14.9971 11.2395 14.9933L11.241 14.9918C11.241 14.9918 11.2448 14.9873 11.2485 14.9768L14.9963 3.045C15 3.0375 15 3.0315 15 3.0315V3.02775C14.9977 3.02141 14.9938 3.01575 14.9887 3.01125C14.9842 3.00643 14.9785 3.00282 14.9722 3.00075L14.9685 3Z" fill="var(--fill-0, white)"/>
</g>
</svg>
